HIERARCHY
ROOT Hips
{
	OFFSET 0.000000 0.000000 0.000000 
	CHANNELS 6 Xposition Yposition Zposition Yrotation Zrotation Xrotation 
	JOINT Lumbar
	{
		OFFSET 0.000000 0.000000 0.000000 
		CHANNELS 3 Zrotation Xrotation Yrotation
		JOINT Neck
		{
			OFFSET 0.000000 0.445665 0.000000 
			CHANNELS 3 Zrotation Xrotation Yrotation
			End Site
			{
				OFFSET 0.000000 0.227535 0.000000 
			}
		}
		JOINT RightShoulder
		{
			OFFSET 0.019635 0.377685 0.194865 
			CHANNELS 3 Zrotation Xrotation Yrotation
			JOINT RightElbow
			{
				OFFSET 0.000000 -0.243375 0.000000 
				CHANNELS 2 Zrotation Yrotation
				JOINT RightWrist
				{
					OFFSET 0.000000 -0.264825 0.000000 
					CHANNELS 2 Zrotation Xrotation
					End Site
					{
						OFFSET 0.006600 -0.176220 0.000990 
					}
				}
			}
		}
		JOINT LeftShoulder
		{
			OFFSET 0.019635 0.377685 -0.194865 
			CHANNELS 3 Zrotation Xrotation Yrotation
			JOINT LeftElbow
			{
				OFFSET 0.000000 -0.243375 0.000000 
				CHANNELS 2 Zrotation Yrotation
				JOINT LeftWrist
				{
					OFFSET 0.000000 -0.264825 0.000000 
					CHANNELS 2 Zrotation Xrotation
					End Site
					{
						OFFSET 0.006600 -0.176220 -0.000990 
					}
				}
			}
		}
	}
	JOINT RightHip
	{
		OFFSET 0.052140 -0.069960 0.075570 
		CHANNELS 3 Zrotation Xrotation Yrotation
		JOINT RightKnee
		{
			OFFSET 0.000000 -0.402270 0.000000 
			CHANNELS 1 Zrotation
			JOINT RightAnkle
			{
				OFFSET 0.000000 -0.404085 0.000000 
				CHANNELS 3 Zrotation Xrotation Yrotation
				End Site
				{
					OFFSET 0.204105 -0.089430 0.008415 
				}
			}
		}
	}
	JOINT LeftHip
	{
		OFFSET 0.052140 -0.069960 -0.075570 
		CHANNELS 3 Zrotation Xrotation Yrotation
		JOINT LeftKnee
		{
			OFFSET 0.000000 -0.402270 0.000000 
			CHANNELS 1 Zrotation
			JOINT LeftAnkle
			{
				OFFSET 0.000000 -0.404085 0.000000 
				CHANNELS 3 Zrotation Xrotation Yrotation
				End Site
				{
					OFFSET 0.204105 -0.089430 -0.008415 
				}
			}
		}
	}
}
MOTION
Frames: 16
Frame Time: 0.02
0.00184 -0.00092 0.00575 -179.24257 -32.6885 -4.92708 41.38376 1.074 -3.77497 -13.7271 -1.0967 -1.39678 -27.07729 -6.35424 -15.68591 29.07864 113.75375 11.61298 6.17011 -32.04789 13.23226 4.93891 32.3801 -95.3431 14.84736 0.02879 37.64268 -3.6874 -9.62798 -18.37273 -8.41976 -2.94211 -3.72423 38.17865 5.81108 8.21766 -27.18833 -8.15644 3.80484 4.17318
0.00362 -0.00064 0.00847 -179.21541 -32.57459 -5.06969 41.13623 1.07467 -4.05829 -13.5987 -1.20451 -1.39858 -26.56897 -6.70396 -14.6276 29.74098 111.27998 11.23198 5.52007 -30.96909 13.60812 4.09413 32.96467 -95.19373 14.79631 0.04799 37.99132 -3.82138 -9.86588 -19.06088 -8.49349 -2.92854 -3.72391 38.11385 5.81452 8.50973 -27.15666 -8.11377 3.77371 4.15379
0.0054 -0.00037 0.01119 -179.18811 -32.46095 -5.21202 40.88927 1.07527 -4.3412 -13.47039 -1.31205 -1.40037 -26.06159 -7.05258 -13.57209 30.40186 108.81642 10.85283 4.87262 -29.89245 13.9835 3.25114 33.54807 -95.04463 14.74518 0.06714 38.33955 -3.95488 -10.10419 -19.74807 -8.56689 -2.91494 -3.72355 38.04916 5.81796 8.80085 -27.12502 -8.07121 3.74265 4.13445
0.00718 -9e-05 0.0139 -179.16101 -32.34737 -5.35422 40.64247 1.07593 -4.62373 -13.34234 -1.41953 -1.40216 -25.55472 -7.40122 -12.51698 31.06226 106.35087 10.47316 4.22472 -28.81677 14.35831 2.40881 34.13095 -94.89568 14.69425 0.08628 38.68722 -4.08846 -10.34156 -20.43434 -8.64039 -2.9014 -3.72323 37.98454 5.82139 9.09201 -27.09343 -8.02867 3.71161 4.11512
0.00896 0.00019 0.01662 -179.13411 -32.23356 -5.49663 40.39517 1.07668 -4.90649 -13.2143 -1.52725 -1.40395 -25.04718 -7.75097 -11.4592 31.72386 103.87366 10.09128 3.5739 -27.73941 14.73336 1.56505 34.71475 -94.74654 14.64347 0.10547 39.03503 -4.22247 -10.57802 -21.121 -8.71426 -2.88789 -3.72295 37.91984 5.82484 9.38415 -27.06185 -7.98604 3.6805 4.09574
0.01073 0.00046 0.01932 -179.10597 -32.12031 -5.63875 40.14894 1.07694 -5.18971 -13.08542 -1.6344 -1.40574 -24.54021 -8.09719 -10.40851 32.38319 101.43862 9.71783 2.93348 -26.66436 15.1094 0.72378 35.29727 -94.59755 14.59161 0.12452 39.38411 -4.35486 -10.82019 -21.80915 -8.78666 -2.8741 -3.72244 37.8552 5.82823 9.67309 -27.03009 -7.9436 3.64955 4.07648
0.01253 0.00074 0.02205 -179.08041 -32.00602 -5.78133 39.90081 1.07822 -5.47168 -12.95844 -1.74259 -1.40754 -24.03256 -8.45011 -9.34484 33.0464 98.92292 9.32815 2.2732 -25.58581 15.48304 -0.12169 35.88175 -94.44839 14.54199 0.14385 39.73026 -4.49053 -11.05072 -22.49393 -8.86193 -2.86092 -3.72239 37.79051 5.83172 9.96813 -26.99871 -7.90083 3.61833 4.05701
0.0143 0.00102 0.02475 -179.05235 -31.89275 -5.92347 39.65451 1.07852 -5.75482 -12.82956 -1.8498 -1.40933 -23.52567 -8.79691 -8.29292 33.70595 96.47884 8.95285 1.63058 -24.51056 15.85887 -0.96309 36.46435 -94.29943 14.49031 0.1629 40.0791 -4.62286 -11.29177 -23.18113 -8.9346 -2.84715 -3.72191 37.72587 5.83515 10.2576 -26.96699 -7.85836 3.58734 4.03772
0.01605 0.00129 0.02743 -179.02166 -31.78042 -6.06521 39.41 1.07773 -6.03952 -12.69883 -1.95592 -1.41111 -23.01886 -9.13615 -7.25571 34.36172 94.1327 8.59741 1.012 -23.4384 16.23773 -1.80078 37.04528 -94.15046 14.43603 0.18171 40.43157 -4.75239 -11.54686 -23.8745 -9.00392 -2.83274 -3.72093 37.6612 5.83841 10.54014 -26.93481 -7.81628 3.55667 4.0187
0.01795 0.00158 0.03028 -179.0074 -31.66176 -6.20965 39.15381 1.08355 -6.31567 -12.58018 -2.06868 -1.41292 -22.50903 -9.51865 -6.13488 35.04138 91.25428 8.13457 0.26244 -22.34556 16.60024 -2.66368 37.63777 -94.00078 14.39646 0.20218 40.76421 -4.9019 -11.72475 -24.54205 -9.09199 -2.82225 -3.72291 37.59641 5.84232 10.86222 -26.90512 -7.77199 3.5243 3.99826
0.01952 0.00184 0.03275 -178.95765 -31.55705 -6.3481 38.92318 1.07523 -6.60953 -12.43515 -2.16719 -1.41468 -22.00729 -9.80999 -5.18993 35.66915 89.47882 7.89388 -0.21546 -21.29839 16.99645 -3.47075 38.2045 -93.85311 14.32604 0.21897 41.1379 -5.00681 -12.06307 -25.2577 -9.14082 -2.80336 -3.7186 37.53207 5.84507 11.10105 -26.87028 -7.73235 3.49543 3.98076
0.02028 0.00204 0.03421 -178.81622 -31.4861 -6.47236 38.75591 1.02922 -6.95512 -12.2241 -2.22807 -1.41628 -21.51381 -9.84746 -4.73775 36.1649 90.93185 8.30671 0.0996 -20.36095 17.49258 -4.1452 38.71112 -93.70678 14.16837 0.22709 41.63212 -5.00827 -12.86713 -26.15933 -9.0784 -2.76228 -3.69734 37.4674 5.84296 11.10811 -26.8203 -7.7056 3.47678 3.97173
0.0207 0.00221 0.03528 -178.63808 -31.43005 -6.59009 38.61558 0.96878 -7.31764 -11.98526 -2.27429 -1.41783 -21.03118 -9.79382 -4.46118 36.6061 93.45996 8.93539 0.67983 -19.47264 18.02095 -4.75961 39.1897 -93.56333 13.98022 0.23126 42.1661 -4.96148 -13.82795 -27.09898 -8.97724 -2.71265 -3.66974 37.40343 5.83997 11.03227 -26.76537 -7.68346 3.46152 3.96557
0.02123 0.0024 0.03651 -178.47302 -31.37007 -6.70951 38.46733 0.91424 -7.67076 -11.75515 -2.32636 -1.41939 -20.55249 -9.78462 -4.09648 37.06616 95.35794 9.43547 1.10617 -18.57146 18.52999 -5.38829 39.6745 -93.42118 13.80766 0.23624 42.67674 -4.92438 -14.69991 -27.98635 -8.89618 -2.66633 -3.64484 37.34021 5.83853 10.99646 -26.71329 -7.65911 3.44431 3.95781
0.02194 0.0026 0.03781 -178.32314 -31.29794 -6.83478 38.30081 0.86256 -8.03232 -11.54198 -2.38219 -1.42098 -20.03574 -9.76347 -3.7636 37.55333 97.83521 10.06101 1.66904 -17.62874 19.05978 -6.07254 40.18771 -93.26768 13.62756 0.24527 43.20972 -4.93869 -15.64501 -29.02276 -8.80457 -2.62228 -3.62061 37.27263 5.83239 10.95028 -26.65851 -7.6353 3.42883 3.9513
0.02219 0.00275 0.03887 -178.1329 -31.25489 -6.94573 38.17883 0.80138 -8.37883 -11.28627 -2.42627 -1.4225 -19.60161 -9.74433 -3.4107 37.96835 99.38638 10.48111 2.01657 -16.78634 19.55283 -6.62589 40.63392 -93.13895 13.45613 0.24506 43.7056 -4.83466 -16.47685 -29.75626 -8.72565 -2.57166 -3.59356 37.21409 5.83561 10.90636 -26.60839 -7.61142 3.41056 3.94287
